<?xml version="1.0" standalone="no"?><!DOCTYPE svg PUBLIC "-//W3C//DTD SVG 1.1//EN" "http://www.w3.org/Graphics/SVG/1.1/DTD/svg11.dtd"><svg t="1618563597767" class="icon" viewBox="0 0 1152 1024" version="1.1" xmlns="http://www.w3.org/2000/svg" p-id="7436" xmlns:xlink="http://www.w3.org/1999/xlink" width="225" height="200"><defs><style type="text/css"></style></defs><path d="M881.777778 768a28.444444 28.444444 0 0 1-28.444445-28.444444V59.363556C853.333333 57.742222 852.309333 56.888889 851.768889 56.888889H227.555556a28.444444 28.444444 0 0 1 0-56.888889h624.213333A58.965333 58.965333 0 0 1 910.222222 59.363556V739.555556a28.444444 28.444444 0 0 1-28.444444 28.444444z" fill="#ffffff" p-id="7437"></path><path d="M654.222222 910.222222H56.888889a56.945778 56.945778 0 0 1-56.888889-56.888889V176.355556A34.161778 34.161778 0 0 1 34.133333 142.222222H654.222222a56.945778 56.945778 0 0 1 56.888889 56.888889v654.222222a56.945778 56.945778 0 0 1-56.888889 56.888889zM56.888889 199.111111v654.222222h597.361778L654.222222 199.111111z" fill="#ffffff" p-id="7438"></path><path d="M554.666667 384.398222h-398.222223a28.444444 28.444444 0 0 1 0-56.888889h398.222223a28.444444 28.444444 0 0 1 0 56.888889zM497.777778 554.666667h-341.333334a28.444444 28.444444 0 0 1 0-56.888889h341.333334a28.444444 28.444444 0 0 1 0 56.888889zM440.888889 724.906667h-284.444445a28.444444 28.444444 0 1 1 0-56.888889h284.444445a28.444444 28.444444 0 0 1 0 56.888889z" fill="#ffffff" p-id="7439"></path></svg>